<?xml version="1.0" encoding="utf-8"?>

<svg version="1.0" id="svgRoot" xmlns:svg="http://www.w3.org/2000/svg"
	 xmlns="http://www.w3.org/2000/svg" xmlns:xlink="http://www.w3.org/1999/xlink" x="0px" y="0px" viewBox="0 0 413.15 122.24"
	 style="enable-background:new 0 0 413.15 122.24;" xml:space="preserve">
<style type="text/css">
	.st0{fill-rule:evenodd;clip-rule:evenodd;fill:#fff;}
	.st1{fill:url(#SVGID_1_);}
</style>
<g id="Layer1001">
	<path class="st0" d="M134.25,0.68h9.93c1.78,0,3.24,1.45,3.24,3.24v56.24c0,1.78-1.45,3.24-3.24,3.24h-9.93
		c-1.78,0-3.24-1.45-3.24-3.24v-3.84c-5.22,5.25-12.17,8.45-19.79,8.45c-16.23,0-29.38-14.5-29.38-32.39S94.99,0,111.22,0
		c7.63,0,14.57,3.2,19.79,8.45V3.92C131.01,2.14,132.47,0.68,134.25,0.68z M277.88,0.68h9.93c1.78,0,3.24,1.45,3.24,3.24v56.24
		c0,1.78-1.46,3.24-3.24,3.24h-9.93c-1.78,0-3.24-1.45-3.24-3.24v-3.84c-5.22,5.25-12.17,8.45-19.79,8.45
		c-16.23,0-29.38-14.5-29.38-32.39S238.62,0,254.84,0c7.63,0,14.57,3.2,19.79,8.45V3.92C274.64,2.14,276.09,0.68,277.88,0.68z
		 M258.7,15.72c8.35,0,15.12,7.46,15.12,16.67c0,9.21-6.77,16.67-15.12,16.67c-8.35,0-15.12-7.46-15.12-16.67
		C243.58,23.18,250.35,15.72,258.7,15.72z M205.95,0.68h9.93c1.78,0,3.24,1.45,3.24,3.24v59.48c0,8.17-5.26,15.15-11.45,19.95
		c-4.26,3.3-9.17,5.6-15.84,6.44s-15.08,0.22-20.98-1.18c-4.62-1.1-7.68-2.65-9.98-4.06c-1.5-0.92-2-2.87-1.11-4.39l4.43-7.61
		c0.85-1.46,2.66-2.02,4.18-1.3c1.93,0.91,4.36,1.92,7.26,2.63c3.9,0.95,8.68,1.36,12.69,0.74c7.33-1.15,12.1-5.58,13.73-12.15
		c0.78-3.11,0.64-6.45,0.64-9.65c-5.21,5.75-12.46,9.32-20.49,9.32c-15.85,0-28.69-13.91-28.69-31.07
		C153.53,13.91,166.38,0,182.22,0c8.02,0,15.28,3.57,20.49,9.32v-5.4C202.71,2.14,204.17,0.68,205.95,0.68z M186.45,15.26
		c8.34,0,15.09,7.08,15.09,15.82c0,8.74-6.76,15.82-15.09,15.82c-8.34,0-15.09-7.08-15.09-15.82
		C171.35,22.34,178.11,15.26,186.45,15.26z M396.86,0.68h9.93c1.78,0,3.24,1.45,3.24,3.24v56.24c0,1.78-1.46,3.24-3.24,3.24h-10.47
		c-1.49,0-2.7-1.21-2.7-2.7v-4.19c-12.54,14.9-42.44,7.24-42.44-13.79V3.92c0-1.78,1.45-3.24,3.24-3.24h9.93
		c1.78,0,3.24,1.45,3.24,3.24V36.3c0,7.16,5.86,13.01,13.01,13.01c7.16,0,13.01-5.86,13.01-13.01V3.92
		C393.62,2.14,395.07,0.68,396.86,0.68z M302.9,0.52h9.93c1.78,0,3.24,1.45,3.24,3.24v36.59c0,3.57,2.91,6.48,6.48,6.48h20.96
		c1.78,0,3.24,1.45,3.24,3.24V60c0,1.78-1.46,3.24-3.24,3.24h-25.5c-10.11,0-18.35-8.24-18.35-18.35V3.76
		C299.67,1.97,301.12,0.52,302.9,0.52z M10.32,0.68c2.99,0,5.99,0,8.98,0c1.18,0,2.2,0.58,2.79,1.6l17.95,30.61L57.99,2.28
		c0.6-1.02,1.61-1.6,2.79-1.6h8.98c1.7,0,3.11,1.31,3.23,3.01l3.96,56.24c0.07,0.93-0.23,1.75-0.86,2.44s-1.44,1.03-2.37,1.03h-9.92
		c-1.7,0-3.11-1.31-3.23-3.01l-2.17-30.83L46.8,49.36c-0.6,1.02-1.61,1.6-2.79,1.6h-7.93c-1.18,0-2.2-0.58-2.79-1.6L21.68,29.56
		l-2.17,30.83c-0.12,1.7-1.53,3.01-3.23,3.01H6.36c-0.93,0-1.73-0.35-2.37-1.03c-0.64-0.68-0.93-1.51-0.86-2.44L7.09,3.7
		C7.21,2,8.61,0.68,10.32,0.68z M115.07,15.72c8.35,0,15.12,7.46,15.12,16.67c0,9.21-6.77,16.67-15.12,16.67
		c-8.35,0-15.12-7.46-15.12-16.67C99.95,23.18,106.72,15.72,115.07,15.72z"/>
	
		<linearGradient id="SVGID_1_" gradientUnits="userSpaceOnUse" x1="-194.9766" y1="116.952" x2="-193.9766" y2="116.952" gradientTransform="matrix(413.1519 0 0 -17.4221 80554.9688 2151.0688)">
		<stop  offset="0" style="stop-color:#fff"/>
		<stop  offset="0.12" style="stop-color:#FFFFFF"/>
		<stop  offset="0.12" style="stop-color:#D6D6D6"/>
		<stop  offset="1" style="stop-color:#FFFFFF"/>
		<stop  offset="1" style="stop-color:#FFFFFF"/>
		<stop  offset="1" style="stop-color:#FFFFFF"/>
		<stop  offset="1" style="stop-color:#000000"/>
		<stop  offset="1" style="stop-color:#FFFFFF"/>
	</linearGradient>
	<path class="st1" d="M3.17,104.81h406.82c1.74,0,3.17,1.42,3.17,3.17v11.09c0,1.74-1.42,3.17-3.17,3.17H3.17
		c-1.74,0-3.17-1.42-3.17-3.17v-11.09C0,106.24,1.42,104.81,3.17,104.81z"/>
</g>
</svg>
